# xmcd CD database file
#
# Track frame offsets:
#	187
#	10355
#	51117
#	74942
#	115102
#	130127
#
# Disc length: 2158 seconds
#
# Revision: 2
# Processed by: cddbd v1.5PL3 Copyright (c) Steve Scherf et al.
# Submitted via: CDex 1.51
#
DISCID=55086c06
DTITLE=Jimmy Smith - Organ Grinder Swing
DYEAR=1965
DGENRE=Jazz
TTITLE0=The Organ Grinder's Swing
TTITLE1=Oh, No, Babe
TTITLE2=Blues for J
TTITLE3=Greensleeves
TTITLE4=I'll Close My Eyes
TTITLE5=Satin Doll
EXTD=Featuring Kenny Burrell and Grady Tate YEAR: 1965
EXTT0=
EXTT1=
EXTT2=
EXTT3=
EXTT4=
EXTT5=
PLAYORDER=
